<?xml version="1.0" encoding="utf-8"?>
<!-- Generator: Adobe Illustrator 24.3.0, SVG Export Plug-In . SVG Version: 6.00 Build 0)  -->
<svg version="1.1" id="Layer_1" xmlns="http://www.w3.org/2000/svg" xmlns:xlink="http://www.w3.org/1999/xlink" x="0px" y="0px"
	 viewBox="0 0 500 250" style="enable-background:new 0 0 500 250;" xml:space="preserve">
<style type="text/css">
	.st0{fill:none;stroke:#3371D3;stroke-width:10.8061;stroke-linecap:round;stroke-linejoin:round;}
	.st1{fill:url(#SVGID_1_);}
</style>
<g>
	<path class="st0" d="M117.5,147v10.8c0,6-4.8,10.8-10.8,10.8H31c-6,0-10.8-4.8-10.8-10.8V147"/>
	<path class="st0" d="M117.5,93V82.2c0-6-4.8-10.8-10.8-10.8H31c-6,0-10.8,4.8-10.8,10.8V93"/>
	<circle class="st0" cx="68.9" cy="120" r="5.4"/>
	<path class="st0" d="M106.4,121.8c0.4-1.2,0.4-2.4,0-3.6C97.9,97.5,74.3,87.6,53.6,96c-10.1,4.1-18.1,12.1-22.2,22.2
		c-0.4,1.2-0.4,2.4,0,3.6c8.5,20.7,32.1,30.7,52.8,22.2C94.3,139.9,102.3,131.9,106.4,121.8"/>
</g>
<image style="overflow:visible;" width="213" height="52" xlink:href="F906C576.jpg"  transform="matrix(0.3871 0 0 0.3871 656.9685 99.8742)">
</image>
<linearGradient id="SVGID_1_" gradientUnits="userSpaceOnUse" x1="141.4731" y1="128.8452" x2="482.8994" y2="128.8452">
	<stop  offset="0.2905" style="stop-color:#005BF1"/>
	<stop  offset="1" style="stop-color:#82C9FF"/>
</linearGradient>
<path class="st1" d="M179,117.5l-13,37.1h-11.6l-13-37.1h10.9l7.7,26.5h0.4l7.7-26.5H179z M189.4,112.7c-1.5,0-2.8-0.5-3.9-1.5
	c-1.1-1-1.6-2.2-1.6-3.7c0-1.4,0.5-2.6,1.6-3.7c1.1-1,2.4-1.5,3.9-1.5c1.5,0,2.8,0.5,3.9,1.5c1.1,1,1.6,2.2,1.6,3.7
	c0,1.4-0.5,2.7-1.6,3.7C192.3,112.2,191,112.7,189.4,112.7z M184.3,154.6v-37.1h10.3v37.1H184.3z M233.6,128.1l-9.4,0.6
	c-0.2-0.8-0.5-1.5-1-2.2c-0.5-0.7-1.2-1.2-2.1-1.6c-0.9-0.4-1.9-0.6-3.1-0.6c-1.6,0-2.9,0.3-4,1c-1.1,0.7-1.6,1.6-1.6,2.7
	c0,0.9,0.4,1.6,1.1,2.2c0.7,0.6,1.9,1.1,3.6,1.5l6.7,1.4c3.6,0.7,6.3,1.9,8.1,3.6c1.8,1.6,2.7,3.8,2.7,6.5c0,2.4-0.7,4.6-2.1,6.4
	c-1.4,1.8-3.4,3.3-5.8,4.3c-2.5,1-5.3,1.5-8.5,1.5c-4.9,0-8.8-1-11.7-3.1c-2.9-2.1-4.6-4.9-5.1-8.4l10.1-0.5c0.3,1.5,1,2.6,2.2,3.4
	c1.2,0.8,2.7,1.2,4.5,1.2c1.8,0,3.3-0.4,4.4-1.1c1.1-0.7,1.7-1.6,1.7-2.7c0-0.9-0.4-1.7-1.2-2.3c-0.8-0.6-2-1.1-3.6-1.4l-6.4-1.3
	c-3.6-0.7-6.3-2-8.1-3.8c-1.8-1.8-2.6-4.1-2.6-6.8c0-2.4,0.6-4.4,1.9-6.2c1.3-1.7,3.1-3.1,5.5-4c2.4-0.9,5.1-1.4,8.3-1.4
	c4.7,0,8.4,1,11.1,3S233.2,124.7,233.6,128.1z M264.8,138.8v-21.3h10.3v37.1h-9.9v-6.7h-0.4c-0.8,2.2-2.2,3.9-4.2,5.2s-4.3,2-7.1,2
	c-2.5,0-4.7-0.6-6.5-1.7c-1.9-1.1-3.4-2.7-4.4-4.8c-1.1-2.1-1.6-4.6-1.6-7.5v-23.6h10.3v21.8c0,2.2,0.6,3.9,1.8,5.2
	c1.2,1.3,2.7,1.9,4.7,1.9c1.2,0,2.4-0.3,3.5-0.9c1.1-0.6,2-1.4,2.6-2.5C264.5,141.9,264.8,140.5,264.8,138.8z M293.9,155.3
	c-2.4,0-4.5-0.4-6.3-1.2c-1.9-0.8-3.3-2.1-4.4-3.7c-1.1-1.6-1.6-3.7-1.6-6.1c0-2.1,0.4-3.8,1.1-5.2c0.8-1.4,1.8-2.5,3.1-3.4
	c1.3-0.9,2.8-1.5,4.5-1.9c1.7-0.4,3.4-0.7,5.3-0.9c2.2-0.2,3.9-0.4,5.2-0.6c1.3-0.2,2.3-0.5,2.9-0.9s0.9-1,0.9-1.8v-0.1
	c0-1.5-0.5-2.7-1.4-3.6c-1-0.8-2.3-1.3-4.1-1.3c-1.9,0-3.3,0.4-4.4,1.2s-1.8,1.8-2.2,3.1l-9.5-0.8c0.5-2.3,1.4-4.2,2.9-5.9
	s3.2-2.9,5.5-3.8s4.9-1.3,7.8-1.3c2.1,0,4,0.2,5.9,0.7c1.9,0.5,3.6,1.2,5,2.2s2.6,2.3,3.5,3.9s1.3,3.5,1.3,5.7v25H305v-5.1h-0.3
	c-0.6,1.2-1.4,2.2-2.4,3.1c-1,0.9-2.2,1.6-3.6,2.1C297.3,155.1,295.7,155.3,293.9,155.3z M296.8,148.2c1.5,0,2.9-0.3,4-0.9
	c1.2-0.6,2.1-1.4,2.7-2.5c0.7-1,1-2.2,1-3.5v-3.9c-0.3,0.2-0.8,0.4-1.3,0.6s-1.2,0.3-1.9,0.5s-1.4,0.3-2.1,0.4
	c-0.7,0.1-1.3,0.2-1.9,0.3c-1.2,0.2-2.3,0.5-3.2,0.8c-0.9,0.4-1.6,0.9-2.1,1.6c-0.5,0.7-0.7,1.5-0.7,2.4c0,1.4,0.5,2.5,1.5,3.2
	C293.9,147.9,295.2,148.2,296.8,148.2z M333,105.2v49.5h-10.3v-49.5H333z M350,154.6h-11.2l17.1-49.5h13.5l17.1,49.5h-11.2
	l-12.4-38.2h-0.4L350,154.6z M349.3,135.2h26.5v8.2h-26.5V135.2z M397.4,112.7c-1.5,0-2.8-0.5-3.9-1.5s-1.6-2.2-1.6-3.7
	c0-1.4,0.5-2.6,1.6-3.7s2.4-1.5,3.9-1.5c1.5,0,2.8,0.5,3.9,1.5s1.6,2.2,1.6,3.7c0,1.4-0.5,2.7-1.6,3.7S399,112.7,397.4,112.7z
	 M392.3,154.6v-37.1h10.3v37.1H392.3z M441.6,128.1l-9.4,0.6c-0.2-0.8-0.5-1.5-1-2.2c-0.5-0.7-1.2-1.2-2.1-1.6
	c-0.9-0.4-1.9-0.6-3.1-0.6c-1.6,0-2.9,0.3-4,1c-1.1,0.7-1.6,1.6-1.6,2.7c0,0.9,0.4,1.6,1.1,2.2c0.7,0.6,1.9,1.1,3.6,1.5l6.7,1.4
	c3.6,0.7,6.3,1.9,8.1,3.6c1.8,1.6,2.7,3.8,2.7,6.5c0,2.4-0.7,4.6-2.1,6.4c-1.4,1.8-3.4,3.3-5.8,4.3c-2.5,1-5.3,1.5-8.5,1.5
	c-4.9,0-8.8-1-11.7-3.1c-2.9-2.1-4.6-4.9-5.1-8.4l10.1-0.5c0.3,1.5,1,2.6,2.2,3.4c1.2,0.8,2.7,1.2,4.5,1.2c1.8,0,3.3-0.4,4.4-1.1
	c1.1-0.7,1.7-1.6,1.7-2.7c0-0.9-0.4-1.7-1.2-2.3c-0.8-0.6-2-1.1-3.6-1.4l-6.4-1.3c-3.6-0.7-6.3-2-8.1-3.8c-1.8-1.8-2.6-4.1-2.6-6.8
	c0-2.4,0.6-4.4,1.9-6.2c1.3-1.7,3.1-3.1,5.5-4c2.4-0.9,5.1-1.4,8.3-1.4c4.7,0,8.4,1,11.1,3S441.2,124.7,441.6,128.1z M465.9,155.4
	c-3.8,0-7.1-0.8-9.8-2.3c-2.7-1.6-4.9-3.8-6.3-6.6c-1.5-2.9-2.2-6.2-2.2-10.2c0-3.8,0.7-7.2,2.2-10c1.5-2.9,3.6-5.1,6.3-6.7
	c2.7-1.6,5.9-2.4,9.5-2.4c2.4,0,4.7,0.4,6.8,1.2c2.1,0.8,4,2,5.6,3.5c1.6,1.6,2.8,3.5,3.7,5.9c0.9,2.4,1.3,5.1,1.3,8.3v2.8h-31.3
	v-6.4h21.6c0-1.5-0.3-2.8-1-3.9c-0.6-1.1-1.5-2-2.7-2.7c-1.1-0.7-2.5-1-3.9-1c-1.6,0-2.9,0.4-4.1,1.1c-1.2,0.7-2.1,1.7-2.8,2.9
	c-0.7,1.2-1,2.5-1,4v6.1c0,1.8,0.3,3.4,1,4.8c0.7,1.3,1.7,2.4,2.9,3.1s2.7,1.1,4.5,1.1c1.1,0,2.2-0.2,3.1-0.5c1-0.3,1.8-0.8,2.4-1.4
	c0.7-0.6,1.2-1.4,1.5-2.4l9.5,0.6c-0.5,2.3-1.5,4.3-3,6s-3.4,3-5.7,4C471.6,154.9,468.9,155.4,465.9,155.4z"/>
</svg>
